<?xml version="1.0" encoding="UTF-8"?>
<svg width="192px" height="48px" viewBox="0 0 192 48" version="1.1" xmlns="http://www.w3.org/2000/svg" xmlns:xlink="http://www.w3.org/1999/xlink">
    <!-- Generator: Sketch 50.2 (55047) - http://www.bohemiancoding.com/sketch -->
    <title>Badge_Black_Ru</title>
    <desc>Created with Sketch.</desc>
    <defs></defs>
    <g id="Badge_Black_Ru" stroke="none" stroke-width="1" fill="none" fill-rule="evenodd">
        <g id="-Bage_Black_RU" transform="translate(0.000000, 1.000000)">
            <path d="M42.6449573,7.04879212 C41.6209661,4.63480226 39.5747711,2.80235322 37.0845629,2.05658819 C35.3936008,1.6337878 33.6517119,1.45030002 31.8922422,1.51179442 L12.0902999,1.51148625 C10.3483822,1.45030055 8.60649327,1.63378833 6.93759633,2.05053142 C4.41927637,2.80416689 2.36919337,4.64371159 1.36125114,7.03043707 C0.710873778,8.97896771 0.424650492,11.0306078 0.517394335,13.1052463 L0.516889944,32.9171244 C0.424639898,34.9693457 0.710863336,37.0210207 1.3476929,38.9336271 C2.36919976,41.3562985 4.41928142,43.1958349 6.91553084,43.9434117 C8.60649336,44.3662114 10.3483823,44.5496992 12.1078518,44.4882056 L31.9096916,44.4885138 C33.6516091,44.5497 35.393498,44.3662122 37.0623955,43.9494684 C39.5807115,43.1958371 41.6307937,41.3563003 42.6387401,38.9695835 C43.289128,37.0210207 43.5753514,34.9693458 43.4825969,32.8946714 L43.4831015,13.0827876 C43.5750835,11.0370516 43.2909778,8.99185383 42.6449573,7.04879212 Z" id="_Path_2" stroke="#E5E5E5" fill="#FFFFFF" fill-rule="nonzero"></path>
            <g id="Group" transform="translate(8.000000, 6.000000)" fill-rule="nonzero">
                <ellipse id="Oval" fill="#FFCC00" cx="13.6104892" cy="20.3774287" rx="13.5971977" ry="13.5805274"></ellipse>
                <path d="M20.4190464,6.53462636 L20.4191618,19.2393466 L20.3891321,19.2493799 C20.3891431,19.2547747 20.3891508,19.2601912 20.3891508,19.2656309 C20.3891508,20.5082746 20.2989602,21.6673722 20.1304778,22.2589441 C19.3201819,25.1040395 16.698987,27.1676924 13.590552,27.1676924 C9.8357895,27.1676924 6.83182759,24.1375442 6.83182759,20.3873851 C6.83182759,16.637226 9.8357895,13.6070778 13.590552,13.6070778 C15.3597108,13.6070778 16.9710383,14.2820055 18.1805001,15.3881256 C18.5756524,15.7495144 18.9279079,16.1569306 19.2287557,16.6018738 C19.1453032,16.2036508 19.0630877,15.7026643 19.0630877,15.2744427 L19.0630877,5.4282284 L19.0630877,0 L27.9121361,2.70814036 L27.9121361,8.84128177 L20.4190464,6.53462636 Z" id="Combined-Shape" fill="#FF3333"></path>
            </g>
            <g id="Group-2" transform="translate(54.000000, 0.000000)" fill="#222222">
                <g id="Яндекс-Музыке" transform="translate(0.000000, 15.000000)">
                    <path d="M8.85,18.78 L6.93,18.78 L3.27,27 L0.6,27 L4.62,18.21 C2.73,17.25 1.47,15.51 1.47,12.3 C1.47,7.8 4.32,5.55 7.71,5.55 L11.16,5.55 L11.16,27 L8.85,27 L8.85,18.78 Z M8.85,16.86 L8.85,7.5 L7.62,7.5 C5.76,7.5 3.96,8.73 3.96,12.3 C3.96,15.75 5.61,16.86 7.62,16.86 L8.85,16.86 Z M34.32,25.08 L34.32,29.97 L32.22,29.97 L32.22,27 L25.74,27 L25.74,29.97 L23.64,29.97 L23.64,25.08 L24.57,25.08 C25.95,21.87 26.1,17.19 26.1,13.17 L26.1,11.88 L33.12,11.88 L33.12,25.08 L34.32,25.08 Z M44.49,25.98 C43.53,26.73 42.27,27.21 40.77,27.21 C37.65,27.21 35.73,24.72 35.73,20.07 C35.73,15.21 37.08,11.67 40.29,11.67 C42.81,11.67 44.46,13.56 44.46,18.69 L44.46,19.98 L38.16,19.98 C38.16,23.4 39.12,25.2 40.98,25.2 C42.3,25.2 43.35,24.6 43.95,24.18 L44.49,25.98 Z M19.98,11.88 L22.29,11.88 L22.29,27 L19.98,27 L19.98,20.22 L16.5,20.22 L16.5,27 L14.16,27 L14.16,11.88 L16.5,11.88 L16.5,18.3 L19.98,18.3 L19.98,11.88 Z M53.19,27 L49.2,19.47 L49.2,27 L46.86,27 L46.86,11.88 L49.2,11.88 L49.2,18.87 L52.83,11.88 L55.2,11.88 L51.45,18.99 L55.74,27 L53.19,27 Z M61.23,27.21 C57.99,27.21 56.04,24.6 56.04,19.44 C56.04,14.7 57.87,11.67 61.41,11.67 C62.76,11.67 63.54,12.03 64.2,12.45 L63.87,14.67 C63.24,14.13 62.34,13.62 61.38,13.62 C59.7,13.62 58.5,15.51 58.5,19.32 C58.5,23.1 59.4,25.26 61.29,25.26 C62.43,25.26 63.3,24.81 63.84,24.33 L64.38,26.07 C63.57,26.76 62.61,27.21 61.23,27.21 Z M30.81,25.08 L30.81,13.77 L28.2,13.77 L28.2,14.04 C28.2,17.22 28.05,21.87 26.79,25.08 L30.81,25.08 Z M40.29,13.59 C38.85,13.59 38.34,15.36 38.19,18.06 L42.06,18.06 C42.06,15.48 41.64,13.59 40.29,13.59 Z M72.96,7.95 C72.96,9.12 72.93,10.86 72.87,12.33 L72.24,27 L71.01,27 L71.94,5.55 L73.59,5.55 L76.8,18.78 C77.07,19.83 77.22,20.85 77.31,21.75 L77.37,21.75 C77.46,20.85 77.64,19.83 77.91,18.78 L81.21,5.55 L82.89,5.55 L83.82,27 L82.38,27 L81.75,12.21 C81.66,10.53 81.69,9.24 81.69,7.92 L81.6,7.92 C81.42,9.27 81.21,10.53 80.88,11.79 L77.88,23.64 L76.71,23.64 L73.74,11.79 C73.44,10.62 73.2,9.42 73.05,7.95 L72.96,7.95 Z M87.27,31.8 C86.94,31.8 86.7,31.77 86.49,31.74 L86.34,30.42 C86.58,30.48 86.88,30.54 87.27,30.54 C88.29,30.54 89.01,29.55 89.46,27.87 L89.58,27.42 L85.83,11.88 L87.24,11.88 L89.64,21.75 C89.91,22.89 90.12,24 90.27,25.17 L90.36,25.17 C90.57,23.97 90.81,22.86 91.08,21.75 L93.42,11.88 L94.68,11.88 L90.81,27.78 C90.3,29.82 89.4,31.8 87.27,31.8 Z M99.45,27.3 C97.02,27.3 95.85,25.62 95.85,25.62 L96.33,24.45 C96.33,24.45 97.35,26.07 99.42,26.07 C100.98,26.07 102.24,24.96 102.24,22.77 C102.24,20.88 101.31,19.59 99.06,19.59 L97.8,19.59 L97.8,18.45 L98.91,18.45 C100.65,18.45 101.88,17.4 101.88,15.33 C101.88,13.8 101.07,12.81 99.6,12.81 C98.22,12.81 97.23,13.59 96.57,14.52 L96.21,13.17 C96.87,12.3 97.98,11.58 99.6,11.58 C101.97,11.58 103.23,13.08 103.23,15.3 C103.23,16.77 102.63,18.12 100.98,18.93 C102.87,19.62 103.68,21.09 103.68,22.74 C103.68,25.68 101.76,27.3 99.45,27.3 Z M106.17,27 L106.17,11.88 L107.58,11.88 L107.58,17.49 L108.69,17.49 C111.57,17.49 113.43,19.05 113.43,22.2 C113.43,25.41 111.45,27 108.6,27 L106.17,27 Z M116.43,11.88 L116.43,27 L115.05,27 L115.05,11.88 L116.43,11.88 Z M108.63,18.6 L107.58,18.6 L107.58,25.89 L108.48,25.89 C110.61,25.89 112.05,24.84 112.05,22.23 C112.05,19.68 110.79,18.6 108.63,18.6 Z M121.2,19.17 L121.2,27 L119.79,27 L119.79,11.88 L121.2,11.88 L121.2,18.99 L126.27,11.88 L127.65,11.88 L122.67,18.9 L128.01,27 L126.45,27 L121.2,19.17 Z M136.41,24.45 C136.41,24.45 136.41,24.45 136.41,24.45 Z M136.41,24.45 L136.86,25.59 C136.86,25.59 135.72,27.3 133.32,27.3 C130.11,27.3 128.64,24.39 128.64,19.44 C128.64,14.49 130.5,11.58 133.05,11.58 C135.66,11.58 137.34,14.31 136.86,19.68 L130.02,19.68 C130.08,23.82 131.16,26.07 133.35,26.07 C135.359487,26.07 136.409464,24.4508261 136.41,24.4500003 L136.41,24.45 Z M133.05,12.75 C131.46,12.75 130.17,14.79 130.05,18.57 L135.54,18.57 C135.78,14.55 134.58,12.75 133.05,12.75 Z"></path>
                </g>
                <g id="Послушайте-на">
                    <path d="M6.188,4.096 L2.268,4.096 L2.268,13 L1.036,13 L1.036,2.976 L7.42,2.976 L7.42,13 L6.188,13 L6.188,4.096 Z M12.012,13.14 C11.5826645,13.14 11.1836685,13.0630008 10.815,12.909 C10.4463315,12.7549992 10.1243347,12.5216682 9.849,12.209 C9.57366529,11.8963318 9.35900077,11.5020024 9.205,11.026 C9.05099923,10.5499976 8.974,9.99466984 8.974,9.36 C8.974,8.72533016 9.05099923,8.17233569 9.205,7.701 C9.35900077,7.22966431 9.57366529,6.83766823 9.849,6.525 C10.1243347,6.21233177 10.4463315,5.97900077 10.815,5.825 C11.1836685,5.67099923 11.5826645,5.594 12.012,5.594 C12.4413355,5.594 12.8426648,5.67099923 13.216,5.825 C13.5893352,5.97900077 13.911332,6.21233177 14.182,6.525 C14.452668,6.83766823 14.6673325,7.22966431 14.826,7.701 C14.9846675,8.17233569 15.064,8.72533016 15.064,9.36 C15.064,9.99466984 14.9846675,10.5499976 14.826,11.026 C14.6673325,11.5020024 14.452668,11.8963318 14.182,12.209 C13.911332,12.5216682 13.5893352,12.7549992 13.216,12.909 C12.8426648,13.0630008 12.4413355,13.14 12.012,13.14 Z M12.012,12.09 C12.2733346,12.09 12.5183322,12.0410005 12.747,11.943 C12.9756678,11.8449995 13.1739992,11.6886677 13.342,11.474 C13.5100008,11.2593323 13.6429995,10.9793351 13.741,10.634 C13.8390005,10.2886649 13.888,9.86400252 13.888,9.36 C13.888,8.85599748 13.8390005,8.43133506 13.741,8.086 C13.6429995,7.74066494 13.5100008,7.46066774 13.342,7.246 C13.1739992,7.03133226 12.9756678,6.87500049 12.747,6.777 C12.5183322,6.67899951 12.2733346,6.63 12.012,6.63 C11.741332,6.63 11.4940011,6.67899951 11.27,6.777 C11.0459989,6.87500049 10.8500008,7.03133226 10.682,7.246 C10.5139992,7.46066774 10.3833338,7.74066494 10.29,8.086 C10.1966662,8.43133506 10.15,8.85599748 10.15,9.36 C10.15,9.86400252 10.1966662,10.2886649 10.29,10.634 C10.3833338,10.9793351 10.5139992,11.2593323 10.682,11.474 C10.8500008,11.6886677 11.0459989,11.8449995 11.27,11.943 C11.4940011,12.0410005 11.741332,12.09 12.012,12.09 Z M19.278,13.14 C18.811331,13.14 18.382002,13.0630008 17.99,12.909 C17.597998,12.7549992 17.2620014,12.5216682 16.982,12.209 C16.7019986,11.8963318 16.4850008,11.506669 16.331,11.04 C16.1769992,10.573331 16.1,10.0226698 16.1,9.388 C16.1,8.76266354 16.1793325,8.21200238 16.338,7.736 C16.4966675,7.25999762 16.7159986,6.86333492 16.996,6.546 C17.2760014,6.22866508 17.6096647,5.99066746 17.997,5.832 C18.3843353,5.67333254 18.8066644,5.594 19.264,5.594 C19.656002,5.594 20.0129984,5.6406662 20.335,5.734 C20.6570016,5.8273338 20.9299989,5.94866592 21.154,6.098 L20.874,7.12 C20.6873324,6.9799993 20.4610013,6.8633338 20.195,6.77 C19.9289987,6.6766662 19.6233351,6.63 19.278,6.63 C18.6433302,6.63 18.1510018,6.84466452 17.801,7.274 C17.4509983,7.70333548 17.276,8.4079951 17.276,9.388 C17.276,10.321338 17.4486649,11.0049978 17.794,11.439 C18.1393351,11.8730022 18.6339968,12.09 19.278,12.09 C19.5953349,12.09 19.8799987,12.0503337 20.132,11.971 C20.3840013,11.8916663 20.6173323,11.7773341 20.832,11.628 L21.098,12.594 C20.9113324,12.7433341 20.6616682,12.8716661 20.349,12.979 C20.0363318,13.0863339 19.6793353,13.14 19.278,13.14 Z M24.234,11.068 C24.1686663,11.3946683 24.0823339,11.6769988 23.975,11.915 C23.8676661,12.1530012 23.7300008,12.3489992 23.562,12.503 C23.3939992,12.6570008 23.1910012,12.7759996 22.953,12.86 C22.7149988,12.9440004 22.4326683,12.9999999 22.106,13.028 L21.952,11.95 C22.344002,11.9126665 22.6286658,11.8053342 22.806,11.628 C22.9833342,11.4506658 23.109333,11.1566687 23.184,10.746 C23.2773338,10.2606642 23.3449998,9.61667068 23.387,8.814 C23.4290002,8.01132932 23.45,6.98467292 23.45,5.734 L27.79,5.734 L27.79,13 L26.642,13 L26.642,6.728 L24.528,6.728 C24.5093332,7.68000476 24.4813335,8.51299643 24.444,9.227 C24.4066665,9.94100357 24.3366672,10.5546641 24.234,11.068 Z M30.198,15.618 C30.0579993,15.618 29.920334,15.6086668 29.785,15.59 C29.649666,15.5713332 29.5400004,15.5433335 29.456,15.506 L29.61,14.484 C29.6566669,14.5026668 29.7266662,14.5213332 29.82,14.54 C29.9133338,14.5586668 30.0393325,14.568 30.198,14.568 C30.468668,14.568 30.7043323,14.4886675 30.905,14.33 C31.1056677,14.1713325 31.2713327,13.8820021 31.402,13.462 L28.938,5.734 L30.17,5.734 L32.018,11.894 L33.852,5.734 L34.986,5.734 L32.76,12.916 C32.6199993,13.3733356 32.4706675,13.7723316 32.312,14.113 C32.1533325,14.4536684 31.976001,14.7359989 31.78,14.96 C31.583999,15.1840011 31.3576679,15.3496661 31.101,15.457 C30.844332,15.5643339 30.5433351,15.618 30.198,15.618 Z M36.148,5.734 L37.296,5.734 L37.296,12.006 L39.508,12.006 L39.508,5.734 L40.656,5.734 L40.656,12.006 L42.868,12.006 L42.868,5.734 L44.016,5.734 L44.016,13 L36.148,13 L36.148,5.734 Z M47.824,12.09 C48.0293344,12.09 48.2159992,12.0573337 48.384,11.992 C48.5520008,11.9266663 48.7059993,11.8450005 48.846,11.747 C48.9860007,11.6489995 49.1096661,11.5393339 49.217,11.418 C49.3243339,11.2966661 49.415333,11.1753339 49.49,11.054 L49.49,9.598 L48.678,9.598 C47.9499964,9.598 47.4320015,9.70999888 47.124,9.934 C46.8159985,10.1580011 46.662,10.4893311 46.662,10.928 C46.662,11.7026705 47.0493295,12.09 47.824,12.09 Z M49.644,13 C49.6253332,12.8786661 49.6066668,12.7106677 49.588,12.496 C49.5693332,12.2813323 49.5553334,12.0806676 49.546,11.894 C49.4526662,12.0433341 49.3430006,12.1926659 49.217,12.342 C49.0909994,12.4913341 48.9463341,12.6243328 48.783,12.741 C48.6196658,12.8576673 48.4353344,12.953333 48.23,13.028 C48.0246656,13.102667 47.7960013,13.14 47.544,13.14 C47.2639986,13.14 46.9980013,13.0933338 46.746,13 C46.4939987,12.9066662 46.2770009,12.7713342 46.095,12.594 C45.9129991,12.4166658 45.7683339,12.1950013 45.661,11.929 C45.5536661,11.6629987 45.5,11.3526684 45.5,10.998 C45.5,10.2046627 45.7589974,9.61900189 46.277,9.241 C46.7950026,8.86299811 47.5626616,8.674 48.58,8.674 L49.49,8.674 L49.49,7.932 C49.49,7.45599762 49.3756678,7.12000098 49.147,6.924 C48.9183322,6.72799902 48.533336,6.63 47.992,6.63 C47.6373316,6.63 47.2920017,6.68133282 46.956,6.784 C46.6199983,6.88666718 46.3213346,7.01733254 46.06,7.176 L45.808,6.21 C46.0600013,6.05133254 46.3983312,5.90900063 46.823,5.783 C47.2476688,5.65699937 47.693331,5.594 48.16,5.594 C48.9813374,5.594 49.5996646,5.77133156 50.015,6.126 C50.4303354,6.48066844 50.638,7.03599622 50.638,7.792 L50.638,11.81 C50.638,11.8940004 50.6403333,11.9896661 50.645,12.097 C50.6496667,12.2043339 50.6543333,12.3139994 50.659,12.426 C50.6636667,12.5380006 50.6706666,12.6453328 50.68,12.748 C50.6893334,12.8506672 50.6986666,12.9346663 50.708,13 L49.644,13 Z M55.426,4.782 C55.0993317,4.782 54.8146679,4.73300049 54.572,4.635 C54.3293321,4.53699951 54.1286675,4.40166753 53.97,4.229 C53.8113325,4.05633247 53.6923337,3.85566781 53.613,3.627 C53.5336663,3.39833219 53.494,3.15333464 53.494,2.892 L54.614,2.892 C54.614,3.25600182 54.6863326,3.51733254 54.831,3.676 C54.9756674,3.83466746 55.1739987,3.914 55.426,3.914 C55.6686679,3.914 55.8599993,3.83466746 56,3.676 C56.1400007,3.51733254 56.21,3.25600182 56.21,2.892 L57.33,2.892 C57.33,3.15333464 57.2903337,3.39833219 57.211,3.627 C57.1316663,3.85566781 57.0126675,4.05633247 56.854,4.229 C56.6953325,4.40166753 56.4970012,4.53699951 56.259,4.635 C56.0209988,4.73300049 55.7433349,4.782 55.426,4.782 Z M52.472,5.734 L53.62,5.734 L53.62,10.368 L53.606,11.222 L56.672,5.734 L57.848,5.734 L57.848,13 L56.7,13 L56.7,8.856 L56.728,7.54 L53.662,13 L52.472,13 L52.472,5.734 Z M62.314,6.728 L62.314,13 L61.166,13 L61.166,6.728 L59.262,6.728 L59.262,5.734 L64.218,5.734 L64.218,6.728 L62.314,6.728 Z M68.04,6.63 C67.5639976,6.63 67.1673349,6.78866508 66.85,7.106 C66.5326651,7.42333492 66.336667,7.95066298 66.262,8.688 L69.524,8.688 C69.5426668,8.3146648 69.521667,7.99500133 69.461,7.729 C69.400333,7.46299867 69.302334,7.25066746 69.167,7.092 C69.031666,6.93333254 68.8683343,6.81666704 68.677,6.742 C68.4856657,6.66733296 68.2733345,6.63 68.04,6.63 Z M70.574,12.426 C70.3873324,12.5753341 70.1050019,12.7316659 69.727,12.895 C69.3489981,13.0583342 68.8660029,13.14 68.278,13.14 C66.1313226,13.14 65.058,11.8800126 65.058,9.36 C65.058,8.73466354 65.1326659,8.18633569 65.282,7.715 C65.4313341,7.24366431 65.6389987,6.85166823 65.905,6.539 C66.1710013,6.22633177 66.4883315,5.99066746 66.857,5.832 C67.2256685,5.67333254 67.6246645,5.594 68.054,5.594 C68.5020022,5.594 68.9056649,5.67566585 69.265,5.839 C69.6243351,6.00233415 69.9206655,6.24966501 70.154,6.581 C70.3873345,6.91233499 70.5483329,7.3346641 70.637,7.848 C70.7256671,8.3613359 70.7233338,8.9679965 70.63,9.668 L66.234,9.668 C66.2713335,10.5360043 66.4603316,11.1566648 66.801,11.53 C67.1416684,11.9033352 67.6573299,12.09 68.348,12.09 C68.7960022,12.09 69.1786651,12.0176674 69.496,11.873 C69.8133349,11.7283326 70.0793323,11.5673342 70.294,11.39 L70.574,12.426 Z M78.848,9.738 L75.922,9.738 L75.922,13 L74.774,13 L74.774,5.734 L75.922,5.734 L75.922,8.744 L78.848,8.744 L78.848,5.734 L79.996,5.734 L79.996,13 L78.848,13 L78.848,9.738 Z M83.804,12.09 C84.0093344,12.09 84.1959992,12.0573337 84.364,11.992 C84.5320008,11.9266663 84.6859993,11.8450005 84.826,11.747 C84.9660007,11.6489995 85.0896661,11.5393339 85.197,11.418 C85.3043339,11.2966661 85.395333,11.1753339 85.47,11.054 L85.47,9.598 L84.658,9.598 C83.9299964,9.598 83.4120015,9.70999888 83.104,9.934 C82.7959985,10.1580011 82.642,10.4893311 82.642,10.928 C82.642,11.7026705 83.0293295,12.09 83.804,12.09 Z M85.624,13 C85.6053332,12.8786661 85.5866668,12.7106677 85.568,12.496 C85.5493332,12.2813323 85.5353334,12.0806676 85.526,11.894 C85.4326662,12.0433341 85.3230006,12.1926659 85.197,12.342 C85.0709994,12.4913341 84.9263341,12.6243328 84.763,12.741 C84.5996658,12.8576673 84.4153344,12.953333 84.21,13.028 C84.0046656,13.102667 83.7760013,13.14 83.524,13.14 C83.2439986,13.14 82.9780013,13.0933338 82.726,13 C82.4739987,12.9066662 82.2570009,12.7713342 82.075,12.594 C81.8929991,12.4166658 81.7483339,12.1950013 81.641,11.929 C81.5336661,11.6629987 81.48,11.3526684 81.48,10.998 C81.48,10.2046627 81.7389974,9.61900189 82.257,9.241 C82.7750026,8.86299811 83.5426616,8.674 84.56,8.674 L85.47,8.674 L85.47,7.932 C85.47,7.45599762 85.3556678,7.12000098 85.127,6.924 C84.8983322,6.72799902 84.513336,6.63 83.972,6.63 C83.6173316,6.63 83.2720017,6.68133282 82.936,6.784 C82.5999983,6.88666718 82.3013346,7.01733254 82.04,7.176 L81.788,6.21 C82.0400013,6.05133254 82.3783312,5.90900063 82.803,5.783 C83.2276688,5.65699937 83.673331,5.594 84.14,5.594 C84.9613374,5.594 85.5796646,5.77133156 85.995,6.126 C86.4103354,6.48066844 86.618,7.03599622 86.618,7.792 L86.618,11.81 C86.618,11.8940004 86.6203333,11.9896661 86.625,12.097 C86.6296667,12.2043339 86.6343333,12.3139994 86.639,12.426 C86.6436667,12.5380006 86.6506666,12.6453328 86.66,12.748 C86.6693334,12.8506672 86.6786666,12.9346663 86.688,13 L85.624,13 Z"></path>
                </g>
            </g>
        </g>
    </g>
</svg>